<svg width="24" height="24" viewBox="0 0 24 24" fill="none" xmlns="http://www.w3.org/2000/svg">
<g id="carbon:sustainability" clip-path="url(#clip0_207_2146)">
<path id="Vector" d="M16.1775 20.8125C14.8726 21.4334 13.4451 21.7538 12 21.75C6.62401 21.75 2.25001 17.376 2.25001 12C2.25001 9.69375 3.04276 7.51575 4.50001 5.769V7.5H6.00001V3H1.50001V4.5H3.63151C1.772 6.55483 0.744697 9.22871 0.750005 12C0.750005 18.2032 5.79676 23.25 12 23.25C13.6683 23.2542 15.3162 22.8841 16.8225 22.167L16.1775 20.8125Z" fill="#004F51"/>
<path id="Vector_2" d="M15.75 6.75C13.38 6.75 11.4368 8.59275 11.2665 10.92C10.4419 10.1677 9.36617 9.75045 8.25 9.75H5.25V12.75C5.25 15.2318 7.269 17.25 9.75 17.25H11.25V20.25H12.75V14.25H14.25C16.731 14.25 18.75 12.2318 18.75 9.75V6.75H15.75ZM9.75 15.75C8.0955 15.75 6.75 14.4045 6.75 12.75V11.25H8.25C9.9045 11.25 11.25 12.5955 11.25 14.25V14.6895L9.53025 12.9697L8.46975 14.0303L10.1895 15.75H9.75ZM17.25 9.75C17.25 11.4045 15.9045 12.75 14.25 12.75H13.8105L15.5303 11.0302L14.4697 9.96975L12.75 11.6895V11.25C12.75 9.5955 14.0955 8.25 15.75 8.25H17.25V9.75Z" fill="#004F51"/>
<path id="Vector_3" d="M23.25 12C23.25 5.79679 18.2033 0.750036 12 0.750036C10.3317 0.745799 8.68377 1.11589 7.17751 1.83304L7.82251 3.18754C9.1274 2.56662 10.5549 2.24626 12 2.25004C17.376 2.25004 21.75 6.62404 21.75 12C21.75 14.3063 20.9573 16.4843 19.5 18.231V16.5H18V21H22.5V19.5H20.3685C22.228 17.4452 23.2553 14.7713 23.25 12Z" fill="#004F51"/>
</g>
<defs>
<clipPath id="clip0_207_2146">
<rect width="24" height="24" fill="white"/>
</clipPath>
</defs>
</svg>
