<svg width="24" height="24" viewBox="0 0 24 24" fill="none" xmlns="http://www.w3.org/2000/svg">
<g id="mdi:recycle">
<path id="Vector" d="M21.82 15.4201L19.32 19.7501C18.83 20.6101 17.92 21.0601 17 21.0001H15V23.0001L12.5 18.5001L15 14.0001V16.0001H17.82L15.6 12.1501L19.93 9.65006L21.73 12.7701C22.25 13.5401 22.32 14.5701 21.82 15.4201ZM9.21 3.06006H14.21C15.19 3.06006 16.04 3.63006 16.45 4.45006L17.45 6.19006L19.18 5.19006L16.54 9.60006L11.39 9.69006L13.12 8.69006L11.71 6.24006L9.5 10.0901L5.16 7.59006L6.96 4.47006C7.37 3.64006 8.22 3.06006 9.21 3.06006ZM5.05 19.7601L2.55 15.4301C2.06 14.5801 2.13 13.5601 2.64 12.7901L3.64 11.0601L1.91 10.0601L7.05 10.1401L9.7 14.5601L7.97 13.5601L6.56 16.0001H11V21.0001H7.4C6.93151 21.034 6.4629 20.9357 6.04747 20.7165C5.63203 20.4973 5.28645 20.1659 5.05 19.7601Z" fill="#004F51"/>
</g>
</svg>
